HIERARCHY
ROOT Hips
{
 OFFSET 0.000000 0.000000 0.000000
 CHANNELS 6 Xposition Yposition Zposition Yrotation Xrotation Zrotation
 JOINT Chest
 {
  OFFSET 0.000000 10.757153 -1.195240
  CHANNELS 3 Yrotation Xrotation Zrotation
  JOINT Chest2
  {
   OFFSET 0.000000 9.567168 0.000000
   CHANNELS 3 Yrotation Xrotation Zrotation
   JOINT Chest3
   {
    OFFSET 0.000000 8.739719 -0.035972
    CHANNELS 3 Yrotation Xrotation Zrotation
    JOINT Chest4
    {
     OFFSET 0.000000 8.729950 -0.036009
     CHANNELS 3 Yrotation Xrotation Zrotation
     JOINT Neck
     {
      OFFSET 0.000000 12.677858 0.000000
      CHANNELS 3 Yrotation Xrotation Zrotation
      JOINT Head
      {
       OFFSET 0.000000 7.116358 0.159035
       CHANNELS 3 Yrotation Xrotation Zrotation
       End Site
       {
        OFFSET 0.000000 12.065465 0.032372
       }
      }
     }
     JOINT RightCollar
     {
      OFFSET -3.128436 7.128044 0.000000
      CHANNELS 3 Yrotation Xrotation Zrotation
      JOINT RightShoulder
      {
       OFFSET -14.902256 0.000000 0.000000
       CHANNELS 3 Yrotation Xrotation Zrotation
       JOINT RightElbow
       {
        OFFSET -24.488619 0.000000 0.000000
        CHANNELS 3 Yrotation Xrotation Zrotation
        JOINT RightWrist
        {
         OFFSET -22.569775 0.000000 0.010578
         CHANNELS 3 Yrotation Xrotation Zrotation
         End Site
         {
          OFFSET -17.224971 0.000000 0.000000
         }
        }
       }
      }
     }
     JOINT LeftCollar
     {
      OFFSET 3.128436 7.128044 0.000000
      CHANNELS 3 Yrotation Xrotation Zrotation
      JOINT LeftShoulder
      {
       OFFSET 14.902256 0.000000 0.000000
       CHANNELS 3 Yrotation Xrotation Zrotation
       JOINT LeftElbow
       {
        OFFSET 24.488619 0.000000 0.000000
        CHANNELS 3 Yrotation Xrotation Zrotation
        JOINT LeftWrist
        {
         OFFSET 22.569775 0.000000 0.010578
         CHANNELS 3 Yrotation Xrotation Zrotation
         End Site
         {
          OFFSET 17.224971 0.000000 0.000000
         }
        }
       }
      }
     }
    }
   }
  }
 }
 JOINT RightHip
 {
  OFFSET -8.989197 0.089105 -0.009901
  CHANNELS 3 Yrotation Xrotation Zrotation
  JOINT RightKnee
  {
   OFFSET 0.000000 -45.863078 0.005797
   CHANNELS 3 Yrotation Xrotation Zrotation
   JOINT RightAnkle
   {
    OFFSET 0.000000 -39.189248 0.026887
    CHANNELS 3 Yrotation Xrotation Zrotation
    JOINT RightToe
    {
     OFFSET 0.000000 -7.245664 16.131599
     CHANNELS 3 Yrotation Xrotation Zrotation
     End Site
     {
      OFFSET 0.000000 -1.462960 6.296980
     }
    }
   }
  }
 }
 JOINT LeftHip
 {
  OFFSET 8.989197 0.086990 -0.009666
  CHANNELS 3 Yrotation Xrotation Zrotation
  JOINT LeftKnee
  {
   OFFSET 0.000000 -45.863078 0.005797
   CHANNELS 3 Yrotation Xrotation Zrotation
   JOINT LeftAnkle
   {
    OFFSET 0.000000 -39.189248 0.026887
    CHANNELS 3 Yrotation Xrotation Zrotation
    JOINT LeftToe
    {
     OFFSET 0.000000 -7.245664 16.131599
     CHANNELS 3 Yrotation Xrotation Zrotation
     End Site
     {
      OFFSET 0.000000 -1.462960 6.296980
     }
    }
   }
  }
 }
}
MOTION
Frames: 16
Frame Time: 0.016667
0.000000 93.887237 0.000000 0.000000 6.340192 0.000000 0.000000 -6.340192 0.000000 0.000000 -5.826342 0.000000 0.000000 -0.005910 0.000000 0.000000 5.832252 0.000000 0.000000 12.610213 0.000000 0.000000 -9.243752 0.000000 0.000000 0.000000 0.000000 0.000000 0.000000 0.000000 2.309063 0.000000 0.000000 -2.309063 0.000000 0.000000 0.000000 0.000000 0.000000 0.000000 0.000000 0.000000 -2.309063 0.000000 0.000000 2.309063 0.000000 0.000000 0.000000 -3.591006 0.000000 0.000000 1.872585 0.000000 0.000000 -4.621771 0.000000 0.000000 0.000000 0.000000 0.000000 -3.587706 0.000000 0.000000 1.905768 0.000000 0.000000 -4.658254 0.000000 0.000000 0.000000 0.000000
10.938123 93.618859 9.455884 2.162220 6.668700 -0.415984 0.145382 -1.674343 0.377604 0.048769 -6.570351 0.169429 0.048435 -0.749921 0.174380 0.049890 5.274242 0.131396 -1.518562 14.893582 -0.273974 -2.741753 -8.361134 0.061094 0.426520 0.091679 7.747599 5.288446 -4.017700 78.596957 7.351425 11.351410 5.307006 0.207258 2.825639 -11.393119 -1.825496 -1.866781 -9.748593 3.811768 -0.239665 -79.987488 -7.588576 26.826865 -0.333237 -9.173262 2.527565 15.215491 4.742081 -4.037687 -0.277527 0.947611 3.012247 -0.842600 -6.103199 -5.304256 0.538244 -0.000000 -0.000000 0.000000 5.055777 -3.672180 1.740550 0.384297 2.164903 -0.250599 1.051744 -5.823374 -2.864172 0.000000 -0.000000 0.000000
10.948950 93.619936 9.452734 2.159867 6.671300 -0.428178 0.146941 -1.678205 0.376179 0.049523 -6.572066 0.168799 0.049184 -0.751637 0.173827 0.050410 5.272956 0.130980 -1.515880 14.918511 -0.271224 -2.737425 -8.314829 0.064722 0.427911 0.093742 7.756069 5.277637 -4.002433 78.604856 7.362690 11.370459 5.320424 0.207877 2.822425 -11.388711 -1.839650 -1.851465 -9.751397 3.812871 -0.244719 -79.976790 -7.573104 26.811274 -0.318424 -9.171679 2.526287 15.226476 4.740606 -4.041467 -0.273502 0.952562 3.010736 -0.840053 -6.107040 -5.305867 0.540073 -0.000000 -0.000000 -0.000000 5.048996 -3.672313 1.743908 0.383645 2.158720 -0.246910 1.064459 -5.828909 -2.860236 0.000000 -0.000000 0.000000
10.958747 93.621368 9.449910 2.157071 6.673309 -0.443688 0.149084 -1.683220 0.376308 0.050474 -6.574293 0.168866 0.050128 -0.753864 0.173991 0.051131 5.271286 0.131105 -1.512527 14.942258 -0.269578 -2.731441 -8.270750 0.066055 0.426308 0.093417 7.764544 5.264778 -3.985472 78.613564 7.371263 11.388013 5.330398 0.208565 2.821852 -11.385683 -1.850305 -1.836546 -9.755749 3.819365 -0.250914 -79.965203 -7.559707 26.799951 -0.305673 -9.169683 2.526537 15.236347 4.739132 -4.045875 -0.266298 0.959433 3.012266 -0.835917 -6.111949 -5.313075 0.541670 0.000000 0.000000 -0.000000 5.042241 -3.672987 1.752113 0.383742 2.154734 -0.244919 1.076408 -5.836071 -2.856202 -0.000000 -0.000000 -0.000000
10.967070 93.622637 9.447069 2.152906 6.674694 -0.461903 0.152766 -1.689706 0.376953 0.052087 -6.577173 0.169171 0.051730 -0.756743 0.174459 0.052370 5.269126 0.131459 -1.508282 14.963492 -0.269656 -2.723171 -8.231385 0.063876 0.419250 0.088621 7.773715 5.249862 -3.965593 78.625167 7.374510 11.403033 5.333270 0.208733 2.827623 -11.384961 -1.855828 -1.822855 -9.761329 3.835624 -0.259627 -79.951130 -7.548926 26.798323 -0.297013 -9.166658 2.531082 15.242579 4.738730 -4.051635 -0.256985 0.970063 3.019119 -0.829625 -6.113646 -5.335595 0.537819 0.000000 -0.000000 -0.000000 5.036996 -3.675017 1.765742 0.384605 2.154459 -0.246724 1.086755 -5.845209 -2.851863 0.000000 -0.000000 -0.000000
10.974364 93.624262 9.444555 2.148300 6.675488 -0.483434 0.157031 -1.697346 0.379151 0.053894 -6.580564 0.170173 0.053526 -0.760135 0.175645 0.053810 5.266583 0.132354 -1.503368 14.983545 -0.270835 -2.713252 -8.194247 0.059411 0.409192 0.081441 7.782889 5.232897 -3.944014 78.637568 7.375062 11.416558 5.332697 0.208967 2.836035 -11.385620 -1.857850 -1.809562 -9.768451 3.857267 -0.269497 -79.936173 -7.540213 26.800969 -0.290403 -9.163220 2.537159 15.247698 4.738326 -4.058023 -0.244492 0.982614 3.029010 -0.821743 -6.116410 -5.363710 0.533733 -0.000000 0.000000 0.000000 5.031777 -3.677584 1.784217 0.386216 2.156380 -0.250227 1.096337 -5.855974 -2.847426 0.000000 -0.000000 -0.000000
10.981492 93.628270 9.442281 2.145521 6.675599 -0.511720 0.159215 -1.703394 0.387127 0.054535 -6.583246 0.173752 0.054162 -0.762817 0.179289 0.054572 5.264571 0.135099 -1.497598 15.000126 -0.273367 -2.701270 -8.163595 0.052165 0.400751 0.075433 7.788237 5.214233 -3.925490 78.648026 7.378960 11.423195 5.333037 0.211588 2.839105 -11.388422 -1.856486 -1.799033 -9.777878 3.878254 -0.276986 -79.924739 -7.537344 26.805075 -0.287431 -9.160993 2.540263 15.253921 4.734633 -4.065819 -0.224712 0.994308 3.040224 -0.812090 -6.134844 -5.372320 0.545095 -0.000000 0.000000 0.000000 5.024521 -3.680116 1.808924 0.389062 2.158241 -0.251967 1.104692 -5.867120 -2.843009 -0.000000 0.000000 0.000000
10.989037 93.633494 9.439407 2.144552 6.675753 -0.545883 0.158524 -1.706833 0.401535 0.053630 -6.584769 0.180196 0.053262 -0.764339 0.185641 0.054391 5.263429 0.139882 -1.490386 15.012075 -0.277129 -2.686191 -8.141589 0.042169 0.395900 0.070936 7.787318 5.191672 -3.912034 78.657472 7.390150 11.417359 5.336151 0.218483 2.831362 -11.395245 -1.850008 -1.793207 -9.789178 3.897252 -0.280061 -79.919348 -7.544252 26.809086 -0.289620 -9.161017 2.536843 15.264254 4.721844 -4.073829 -0.198953 1.006500 3.056229 -0.797489 -6.162746 -5.406867 0.558835 0.000589 0.069501 -0.005486 5.017770 -3.683209 1.837806 0.392586 2.158800 -0.250930 1.110103 -5.877778 -2.837948 0.000000 -0.000000 0.000000
10.996415 93.641102 9.436773 2.145411 6.675227 -0.586802 0.155754 -1.708676 0.421721 0.051559 -6.585580 0.189215 0.051204 -0.765151 0.194450 0.053533 5.262819 0.146513 -1.482326 15.020555 -0.282248 -2.669062 -8.126062 0.029386 0.392672 0.067608 7.782575 5.167410 -3.901634 78.664980 7.404684 11.404636 5.340185 0.227775 2.818281 -11.404209 -1.840148 -1.790143 -9.802782 3.915601 -0.280743 -79.917475 -7.557004 26.814558 -0.295457 -9.162254 2.530451 15.275691 4.705758 -4.083230 -0.165905 1.017837 3.073559 -0.781119 -6.206322 -5.421892 0.588046 0.001133 0.138999 -0.011026 5.008980 -3.686262 1.872919 0.397344 2.159300 -0.248131 1.114289 -5.888817 -2.832907 0.000000 -0.000000 0.000000
11.002740 93.656630 9.436812 2.150416 6.671772 -0.640555 0.150618 -1.709219 0.449949 0.048101 -6.585812 0.201823 0.047767 -0.765383 0.206707 0.051908 5.262642 0.155740 -1.475001 15.026760 -0.289351 -2.652597 -8.114786 0.013213 0.389780 0.067979 7.777503 5.148386 -3.893014 78.665029 7.416763 11.396384 5.343917 0.236123 2.808290 -11.410434 -1.832212 -1.786386 -9.820751 3.931265 -0.281563 -79.915968 -7.567578 26.823350 -0.301972 -9.163201 2.527238 15.281419 4.700483 -4.098378 -0.117542 1.021465 3.080093 -0.772335 -6.298593 -5.255821 0.687389 -0.000000 0.000000 0.000000 4.988468 -3.686888 1.921817 0.405495 2.161216 -0.243153 1.121943 -5.901596 -2.829990 0.000000 0.000000 -0.000000
11.007520 93.685719 9.443500 2.162285 6.660572 -0.714955 0.142168 -1.706804 0.490549 0.042653 -6.584728 0.219952 0.042352 -0.764298 0.224282 0.049213 5.263451 0.168969 -1.469712 15.029662 -0.299811 -2.638722 -8.109680 -0.008412 0.384728 0.073850 7.772407 5.138550 -3.885704 78.652992 7.426152 11.399463 5.349329 0.242749 2.805101 -11.411037 -1.829130 -1.779353 -9.845991 3.939177 -0.282671 -79.912635 -7.574637 26.834378 -0.309378 -9.163610 2.531032 15.276286 4.709577 -4.126498 -0.047540 1.024734 3.081605 -0.764738 -6.485000 -4.775696 0.892291 -0.002908 -0.522923 0.070564 4.954006 -3.679733 1.993464 0.416060 2.166972 -0.235758 1.133051 -5.920893 -2.829815 0.000000 -0.000000 0.000000
11.011246 93.722727 9.452860 2.178322 6.646465 -0.802190 0.131351 -1.703080 0.539190 0.035816 -6.583062 0.241667 0.035557 -0.762631 0.245304 0.045750 5.264695 0.184792 -1.465157 15.030291 -0.312255 -2.625505 -8.108819 -0.033430 0.380007 0.083417 7.766981 5.133948 -3.880185 78.633505 7.433089 11.407015 5.354436 0.248422 2.804997 -11.408903 -1.827976 -1.771630 -9.875596 3.944405 -0.283915 -79.909667 -7.579518 26.848725 -0.317456 -9.163724 2.537999 15.265443 4.729381 -4.160477 0.037758 1.020287 3.072323 -0.764736 -6.716978 -4.113561 1.164570 -0.004368 -1.254025 0.160446 4.907843 -3.670051 2.078884 0.430020 2.174145 -0.226186 1.147632 -5.941928 -2.831767 0.000000 0.000000 -0.000000
11.014509 93.756265 9.455392 2.192698 6.641674 -0.884895 0.120726 -1.703305 0.585144 0.029180 -6.583153 0.262184 0.028963 -0.762722 0.265146 0.042347 5.264620 0.199728 -1.459024 15.032931 -0.323192 -2.609879 -8.104210 -0.056258 0.381806 0.093820 7.763801 5.129671 -3.876614 78.614940 7.432484 11.409824 5.352065 0.252115 2.805262 -11.407808 -1.825272 -1.767511 -9.902909 3.960123 -0.287382 -79.910483 -7.578216 26.871503 -0.322588 -9.162765 2.542798 15.257539 4.763270 -4.183196 0.127377 0.979244 3.022832 -0.800935 -6.887801 -3.505726 1.450220 -0.002608 -1.875666 0.159325 4.846971 -3.671332 2.158742 0.452470 2.176944 -0.214744 1.170430 -5.951726 -2.836105 -0.000000 -0.000000 -0.000000
11.015547 93.783489 9.447453 2.203311 6.649877 -0.958791 0.110833 -1.709101 0.626042 0.023088 -6.585723 0.280444 0.022908 -0.765292 0.282788 0.039178 5.262686 0.213005 -1.450071 15.040058 -0.333150 -2.589287 -8.091284 -0.078397 0.394990 0.105540 7.763782 5.128513 -3.875893 78.600388 7.421303 11.400099 5.337014 0.252952 2.805180 -11.408840 -1.821519 -1.769145 -9.925880 3.993129 -0.292990 -79.916260 -7.568067 26.906598 -0.323160 -9.160527 2.541805 15.257304 4.801082 -4.171466 0.221364 0.874267 2.880108 -0.891318 -6.919628 -2.992750 1.740006 0.001463 -2.284722 -0.009401 4.767241 -3.686380 2.229462 0.486482 2.169565 -0.201242 1.204603 -5.943069 -2.844842 0.000000 0.000000 0.000000
11.016122 93.807243 9.432686 2.212221 6.667380 -1.028156 0.101128 -1.718844 0.664259 0.017197 -6.590049 0.297506 0.017054 -0.769618 0.299252 0.036070 5.259434 0.225396 -1.439544 15.049198 -0.341600 -2.566297 -8.074608 -0.098339 0.414694 0.118101 7.766015 5.127682 -3.877113 78.586759 7.402587 11.385622 5.314494 0.251808 2.805466 -11.410912 -1.816209 -1.774381 -9.946557 4.036628 -0.300820 -79.925820 -7.551716 26.950120 -0.320763 -9.157214 2.538643 15.260007 4.853201 -4.148559 0.319683 0.733127 2.696927 -1.017522 -6.891111 -2.534779 2.045419 0.006870 -2.584902 -0.271525 4.672742 -3.712295 2.294707 0.528976 2.157815 -0.185855 1.246985 -5.923170 -2.855945 -0.000000 -0.000000 0.000000
11.022105 93.824665 9.412520 2.219825 6.695330 -1.088462 0.092544 -1.732933 0.696180 0.012075 -6.596310 0.311758 0.011964 -0.775878 0.312985 0.033322 5.254733 0.235730 -1.428872 15.057205 -0.343467 -2.545528 -8.059910 -0.105987 0.432519 0.127198 7.770347 5.113886 -3.877719 78.573161 7.380346 11.380552 5.292929 0.250293 2.805543 -11.414540 -1.804347 -1.781054 -9.964431 4.083400 -0.313209 -79.939064 -7.533113 26.995516 -0.316589 -9.152664 2.538835 15.260113 4.953716 -4.167139 0.411154 0.609231 2.602867 -1.154353 -6.933493 -2.247759 2.345370 0.012413 -2.769340 -0.513526 4.572777 -3.754088 2.346054 0.575820 2.153308 -0.169440 1.292842 -5.900708 -2.863606 0.000000 -0.000000 0.000000
